<?xml version="1.0" encoding="UTF-8"?>
<!DOCTYPE svg PUBLIC "-//W3C//DTD SVG 1.1//EN" "http://www.w3.org/Graphics/SVG/1.1/DTD/svg11.dtd">
<svg xmlns="http://www.w3.org/2000/svg" version="1.1" width="1196px" height="714px" style="shape-rendering:geometricPrecision; text-rendering:geometricPrecision; image-rendering:optimizeQuality; fill-rule:evenodd; clip-rule:evenodd" xmlns:xlink="http://www.w3.org/1999/xlink">
<g><path fill="#323389" stroke="#323389" stroke-width="0.5" d="M 597.73,100.27 c -13.56,18.64 -27.15,37.15 -43.32,53.66 c -5.4,5.38 -10.87,10.66 -16.42,15.85 c 0.31,0.48 0.77,0.62 1.36,0.42 c 18.34,-4.06 36.89,-5.94 55.67,-5.64 c -0.09,0.47 -0.36,0.81 -0.8,1.01 c -41.96,4.69 -83.73,11.56 -125.29,18.97 c -49.47,17.79 -96.81,36.9 -139.02,68.9 c -15.98,14.29 -48.22,41.3 -57.92,59.09 c -6.44,14.44 -12.5,29.04 -18.19,43.79 c -0.24,0.38 -0.57,0.63 -0.99,0.76 c -1.52,-3.79 -2.69,-9.17 -7.47,-9.9 c -8.96,0.49 -23.58,-3.91 -25.67,8.74 c -5.2,30.19 -9.5,61.52 -14.43,91.87 c -0.68,3.89 -1.16,7.81 -1.42,11.74 c 0.16,0.95 0.71,1.45 1.68,1.48 c 7.32,0.08 14.64,0.05 21.96,-0.08 c 1.91,0.08 2.06,-3.26 2.4,-4.54 c 3.27,-20.86 6.49,-41.73 9.66,-62.6 c 0.09,-0.44 0.35,-0.65 0.78,-0.63 c 5.1,16.83 10.29,33.66 15.58,50.48 c 2.22,5.33 8.47,4.06 13.09,4.4 c 48.44,52.62 106,85.36 172.59,109.87 c 42.19,16.57 88.86,16.89 133.26,23.71 c 29.65,4.8 56.14,-2.21 85.51,-4.84 c 20.17,-3.6 48.32,-5.42 67.25,-10.8 c 64.18,-23.81 119.99,-51.93 166.81,-103.18 c 0.46,-0.45 0.67,-0.98 0.65,-1.62 c 6.43,-1.5 18.71,-4.6 23.55,-9 c 0.95,-3.5 -2.92,-8.67 -4.11,-11.98 c 2.99,-17.63 22.87,-59.72 18.27,-75.19 c 0.38,-0.55 0.91,-0.86 1.59,-0.91 c 0.08,1.87 -0.4,3.89 2.24,3.81 c 9.95,0.25 19.91,0.35 29.87,0.3 c 0.52,-0.05 0.94,0.13 1.24,0.54 c -4.64,30.22 -9.17,60.45 -13.6,90.71 c 0.35,1.18 1.16,1.67 2.42,1.49 c 7.32,0.14 14.63,0.11 21.95,-0.1 c 0.8,-0.01 1.41,-0.34 1.83,-1 c 0.53,-1.92 0.96,-3.86 1.28,-5.82 c 4.4,-28.47 8.94,-56.92 13.62,-85.34 c 0.37,-0.39 0.82,-0.56 1.36,-0.5 c 9.63,0.02 19.26,-0.02 28.89,-0.11 c 3.04,0.21 4.71,-1.21 5,-4.26 c 0.68,-3.57 1.27,-7.16 1.77,-10.76 c -0.1,-1.91 1.61,-6.24 -1.78,-5.95 c -29.95,-0.34 -59.9,-0.39 -89.85,-0.16 c -1.78,-0.03 -2.98,0.78 -3.59,2.44 c -0.89,3.84 -1.63,7.71 -2.24,11.61 c -0.63,0.04 -1.12,-0.22 -1.44,-0.76 c -5.86,-15.27 -11.46,-30.64 -16.81,-46.1 c -1.49,-4.25 -3.65,-8.13 -6.49,-11.62 c -9.55,-11.12 -19.32,-22.05 -29.31,-32.79 c -10.06,-8.57 -20.12,-17.14 -30.18,-25.72 c -17.42,-12.19 -32.95,-24.65 -52.46,-33.66 c -9.5,-6.22 -18.26,-11.01 -28.92,-15.1 c -0.61,-0.41 -1.16,-0.9 -1.64,-1.46 c 10.96,-28.98 24.31,-62.48 28.83,-93.02 c 0.6,-0.88 1.45,-1.21 2.53,-0.99 c 104.65,20.72 214.53,84.56 269.29,178.37 c 49.32,84.92 29.68,179.8 -34.35,250.27 c -107.03,117.39 -289.78,161.82 -443.3,159.98 c -141.68,-1.33 -301.83,-40.86 -408.26,-139.36 c -52.07,-48.59 -86.84,-113.09 -81.74,-185.94 c 9.38,-109.36 102.25,-188.26 197.74,-228.27 c 12.12,-5 24.3,-9.81 36.56,-14.43 c 0.27,-0.08 0.51,-0.05 0.74,0.1 c -70.25,49.71 -120.82,115.36 -146.42,198.06 c -0.02,0.89 -0.86,1.89 0.24,2.43 c 0.52,-0.16 0.92,-0.47 1.21,-0.93 c 95.11,-123.52 254.22,-201.06 407.16,-219.79 Z"/></g>
<g><path fill="#bad131" stroke="#bad131" stroke-width="0.5" d="M 636.12,49.26 c -14.63,15.69 -26.64,33.13 -38.39,51.01 c -152.94,18.73 -312.05,96.27 -407.16,219.79 c -0.29,0.46 -0.69,0.77 -1.21,0.93 c -1.1,-0.54 -0.26,-1.54 -0.24,-2.43 c 25.6,-82.7 76.17,-148.35 146.42,-198.06 c -0.23,-0.15 -0.47,-0.18 -0.74,-0.1 c -12.26,4.62 -24.44,9.43 -36.56,14.43 c -95.49,40.01 -188.36,118.91 -197.74,228.27 c -5.1,72.85 29.67,137.35 81.74,185.94 c 106.43,98.5 266.58,138.03 408.26,139.36 c 153.52,1.84 336.27,-42.59 443.3,-159.98 c 64.03,-70.47 83.67,-165.35 34.35,-250.27 c -54.76,-93.81 -164.64,-157.65 -269.29,-178.37 c -1.22,-0.24 -1.82,-0.97 -1.82,-2.18 c 1.38,-9.61 1.83,-19.27 1.34,-28.97 c 87.28,18.58 174.49,49.38 250.25,97.19 c 68.29,44.02 134.75,105.18 146.47,189.74 c 0.06,0.64 0.36,1.13 0.9,1.47 c 0,12.64 0,25.29 0,37.93 c -0.52,0.36 -0.83,0.87 -0.92,1.51 c -12.23,98.74 -86.69,170.64 -169.64,217.52 c -107.99,61.49 -240.85,91.28 -363.94,98.18 c -8.39,1.13 -20.22,1.08 -28.99,1.17 c -0.62,-0.02 -1.14,0.2 -1.55,0.66 c -21.97,0 -43.95,0 -65.92,0 c -0.33,-0.55 -0.83,-0.8 -1.48,-0.73 c -41.67,-0.48 -85.91,-5.35 -127.17,-11.5 c -141.37,-22.54 -312.92,-82.02 -397.7,-205.1 c -18.78,-27.64 -30.95,-57.93 -36.52,-90.86 c -0.44,-3.09 -0.76,-6.18 -0.97,-9.28 c -0.05,-0.82 -0.45,-1.34 -1.2,-1.55 c 0,-12.32 0,-24.64 0,-36.95 c 0.54,-0.33 0.83,-0.8 0.88,-1.44 c 2.36,-17.58 7.19,-34.45 14.5,-50.63 c 50.19,-107.49 176.18,-177.94 285.55,-210.68 c 109.19,-33.54 221.12,-47.69 335.19,-46.02 Z"/></g>
<g><path fill="#364296" stroke="#364296" stroke-width="0.5" d="M 595.02,164.56 c 72,1.47 127.79,49.18 149.64,116.19 c 0.18,0.37 0.45,0.66 0.81,0.86 c 0.59,-7.29 1.51,-14.57 2.74,-21.82 c 3.91,-22.79 11.01,-44.48 19.29,-66 c 0.48,0.56 1.03,1.05 1.64,1.46 c 10.66,4.09 19.42,8.88 28.92,15.1 c 19.51,9.01 35.04,21.47 52.46,33.66 c 10.06,8.58 20.12,17.15 30.18,25.72 c 9.99,10.74 19.76,21.67 29.31,32.79 c 2.84,3.49 5,7.37 6.49,11.62 c 5.35,15.46 10.95,30.83 16.81,46.1 c 0.32,0.54 0.81,0.8 1.44,0.76 c -0.19,1.03 -0.33,2.06 -0.41,3.1 c -0.68,0.05 -1.21,0.36 -1.59,0.91 c 4.6,15.47 -15.28,57.56 -18.27,75.19 c -0.71,-1.16 -2.68,-5.72 -4.05,-5.88 c -5.15,0.31 -13.89,4.03 -19.5,4.94 c -30.21,4.92 -38.43,-6.93 -35.57,-35.44 c 4.24,-35.21 27.82,-41 58.42,-32.18 c 2.62,0.69 4.44,-0.22 5.48,-2.74 c 2.48,-4.64 4.56,-9.46 6.24,-14.44 c 0.08,-2.16 -6.63,-4.44 -8.32,-4.98 c -54.88,-17.17 -94.91,17.38 -90.7,73.54 c 2.95,39.12 36.33,43.44 68.56,38.16 c 0.02,0.64 -0.19,1.17 -0.65,1.62 c -46.82,51.25 -102.63,79.37 -166.81,103.18 c -18.93,5.38 -47.08,7.2 -67.25,10.8 c -29.37,2.63 -55.86,9.64 -85.51,4.84 c -44.4,-6.82 -91.07,-7.14 -133.26,-23.71 c -66.59,-24.51 -124.15,-57.25 -172.59,-109.87 c 2.68,-0.01 5.33,-0.25 7.96,-0.7 c 7.08,-1.78 17.27,-25.01 22.17,-31.23 c 2.39,0.75 7.42,16.06 8.21,19.03 c -0.71,4.68 -4.19,21.69 -3.15,25.18 c 0.34,0.45 0.79,0.66 1.36,0.64 c 7.3,0.14 14.59,0.09 21.89,-0.15 c 0.5,-0.08 0.86,-0.34 1.09,-0.79 c 0.92,-3.61 1.64,-7.26 2.16,-10.96 c 4.68,-29.99 9.33,-60 13.94,-90 c 0.48,-4.98 1.21,-10.98 -5.25,-11.9 c -12.23,0.42 -21.69,-3.72 -28.62,8.96 c -12.66,20.76 -25.21,41.58 -37.67,62.46 c -0.83,1.51 -1.55,1.49 -2.14,-0.04 c -5.8,-20.56 -11.84,-41.04 -18.11,-61.46 c 0.42,-0.13 0.75,-0.38 0.99,-0.76 c 5.69,-14.75 11.75,-29.35 18.19,-43.79 c 9.7,-17.79 41.94,-44.8 57.92,-59.09 c 42.21,-32 89.55,-51.11 139.02,-68.9 c 41.56,-7.41 83.33,-14.28 125.29,-18.97 c 0.44,-0.2 0.71,-0.54 0.8,-1.01 Z M 609.15,237.19 c -15.65,-5.32 -51.58,6.97 -69.15,8.37 c -24.6,4.82 -49.13,9.95 -73.6,15.4 c -10.53,2.51 -57.9,30.33 -64.46,38.47 c -13.43,21.18 -25.57,44.42 -37.45,66.57 c -1.75,4.3 -4.31,9.41 -0.21,13.16 c -5.37,12.21 -7.99,24.99 -7.88,38.34 c -0.73,38.36 27.54,49.88 61.46,44.17 c 13.82,5.09 29.85,17.65 44.97,22.81 c 42.87,8.5 85.87,16.23 129.01,23.17 c 5.35,1.02 10.69,0.93 16.01,-0.25 c 38.16,-7.53 76.41,-14.16 114.35,-22.83 c 11.22,-4.47 24.62,-15.21 35.78,-21.1 c 1.04,-0.83 0.91,-1.27 -0.42,-1.32 c -3.66,-0.07 -7.32,-0.13 -10.98,-0.2 c -0.73,0.06 -1.27,-0.21 -1.62,-0.82 c 18.49,0.09 36.99,0.07 55.49,-0.04 c 1.78,0.2 3.34,-0.26 4.67,-1.39 c 2.12,-4.38 2.73,-13.26 2.97,-18.26 c 0.11,-2.3 -3.31,-1.67 -4.72,-1.92 c -15.94,0.07 -31.88,-0.07 -47.82,-0.44 c -10.49,-0.27 -6.17,-14.68 -5,-21.16 c 0.3,-2.14 0.8,-4.23 1.52,-6.25 c 1.48,-0.34 2.98,-0.47 4.51,-0.4 c 14.62,-0.05 29.24,-0.1 43.86,-0.17 c 2.62,0.23 4.2,-0.94 4.73,-3.5 c 1.07,-4.63 1.71,-9.33 1.94,-14.08 c 0.07,-1.06 -0.35,-1.84 -1.26,-2.33 c 1.33,-5.92 4.52,-11.36 6.99,-16.86 c -0.53,-1.55 -1.07,-3.11 -1.62,-4.66 c 0.74,-0.94 2.62,-0.43 2.77,-1.73 c 3.83,-2.77 4.27,-14.7 4.6,-19.35 c 0.07,-0.49 -0.07,-0.9 -0.43,-1.22 c -18.55,-2.06 -40.32,-0.6 -59.21,-0.48 c 1.15,-1.36 20.42,-1.03 23.56,-1.04 c 0.43,0.03 0.81,-0.1 1.12,-0.4 c -7.09,-15.18 -13.76,-29.74 -18.97,-45.67 c -5.83,-8.15 -37.8,-30.3 -48.65,-31.34 c -18.5,-2.53 -36.34,-6.89 -54.51,-11.02 c -0.4,0.6 -0.86,1.13 -1.4,1.61 c 0.95,-12.75 -3.03,-21.58 -7.39,-33.13 c -3.04,-9.25 -4.92,-18.73 -5.66,-28.44 c -0.2,-1.44 -0.85,-1.68 -1.97,-0.71 c -13.58,11.9 -26.71,24.76 -35.93,40.44 Z"/></g>
<g><path fill="#394d9e" stroke="#394d9e" stroke-width="0.5" d="M 609.15,237.19 c -28.87,48.73 44.27,71.67 50.95,21.84 c 0.54,-0.48 1,-1.01 1.4,-1.61 c 18.17,4.13 36.01,8.49 54.51,11.02 c 10.85,1.04 42.82,23.19 48.65,31.34 c 5.21,15.93 11.88,30.49 18.97,45.67 c -0.31,0.3 -0.69,0.43 -1.12,0.4 c -3.14,0.01 -22.41,-0.32 -23.56,1.04 c -16.73,1.76 -26.2,12.52 -28.58,28.8 c -3.01,19.87 -7.26,42.03 -9.13,61.8 c -0.97,14.86 9.92,22.84 23.72,23.64 c 0.35,0.61 0.89,0.88 1.62,0.82 c 3.66,0.07 7.32,0.13 10.98,0.2 c 1.33,0.05 1.46,0.49 0.42,1.32 c -11.16,5.89 -24.56,16.63 -35.78,21.1 c -37.94,8.67 -76.19,15.3 -114.35,22.83 c -5.32,1.18 -10.66,1.27 -16.01,0.25 c -43.14,-6.94 -86.14,-14.67 -129.01,-23.17 c -15.12,-5.16 -31.15,-17.72 -44.97,-22.81 c 37.78,-8.19 52.19,-46.78 47.58,-81.88 c -4.83,-31 -35.14,-38.96 -62.15,-32.82 c -17.81,4.88 -30.81,15.61 -39.01,32.19 c -4.1,-3.75 -1.54,-8.86 0.21,-13.16 c 11.88,-22.15 24.02,-45.39 37.45,-66.57 c 6.56,-8.14 53.93,-35.96 64.46,-38.47 c 24.47,-5.45 49,-10.58 73.6,-15.4 c 17.57,-1.4 53.5,-13.69 69.15,-8.37 Z M 464.51,448 c 1.43,3.49 5.05,16.05 9.06,16.66 c 12.18,-1.58 27.08,-11.21 33.71,-21.78 c 5.77,-9.56 9.84,-19.81 12.22,-30.73 c 3.44,-14.37 6.82,-28.74 10.13,-43.12 c 2.05,-0.39 4.13,-0.54 6.24,-0.47 c 8.58,-0.04 17.15,-0.04 25.73,0 c 0.9,0.25 1.29,0.85 1.17,1.79 c -4.78,29.37 -10.32,59.51 -13.42,89.05 c 0.24,1.14 0.97,1.64 2.17,1.52 c 5.28,0.11 19.2,1.13 23.53,-0.44 c 0.4,-0.63 0.65,-1.32 0.77,-2.06 c 5.38,-33.45 10.56,-66.93 15.55,-100.44 c 2.45,-13.21 -11.4,-11.11 -19.89,-11.11 c -17.64,-0.12 -35.28,-0.06 -52.91,0.18 c -6.4,-0.22 -10.31,2.8 -11.73,9.07 c -7.05,22.54 -9.65,70.62 -31.57,83.55 c -2.75,2.39 -10.4,4.32 -10.76,8.33 Z M 602.81,454 c -0.23,4.13 1.71,6.42 5.8,6.85 c 23.61,-1.17 58.01,5.55 78.41,-8.37 c 15.63,-9.96 22.75,-34.67 8.86,-48.83 c -2.4,-1.89 -4.86,-3.64 -7.38,-5.25 c 2.2,-1.6 4.46,-3.16 6.76,-4.67 c 15.8,-11.87 14.7,-36.42 -4.54,-43.96 c -16.63,-5.38 -45.1,-2.07 -63.15,-2.74 c -7.45,-0.22 -9.1,5.51 -10.09,11.63 c -5.16,31.74 -10.05,63.52 -14.67,95.34 Z M 631.93,438.02 c 1.22,-8.89 2.57,-17.76 4.06,-26.6 c 0.04,-0.52 0.28,-0.9 0.73,-1.13 c 12.18,-0.27 39.1,-4.93 38.89,13.06 c -2.95,20.24 -27.19,15.88 -42.18,15.78 c -0.8,0.02 -1.3,-0.35 -1.5,-1.11 Z"/></g>
<g><path fill="#394b9d" stroke="#394b9d" stroke-width="0.5" d="M 383.98,416 c 0.78,-23.5 10.84,-53.36 40.27,-47.59 c 28.59,8.56 13.86,79.41 -24.64,71.39 c -12.04,-1.72 -15.47,-13.22 -15.63,-23.8 Z M 813.99,367.94 c -0.15,1.3 -2.03,0.79 -2.77,1.73 c 0.55,1.55 1.09,3.11 1.62,4.66 c -2.47,5.5 -5.66,10.94 -6.99,16.86 c -16.72,-0.32 -33.44,-0.47 -50.16,-0.46 c -0.6,-0.57 -0.78,-1.27 -0.55,-2.11 c 1.47,-7.96 1.11,-19.41 11.83,-20.17 c 15.67,-0.21 31.35,-0.38 47.02,-0.51 Z"/></g>
<g><path fill="#384497" stroke="#384497" stroke-width="0.5" d="M 307.31,435.14 c -0.79,-2.97 -5.82,-18.28 -8.21,-19.03 c 4.9,-8.22 9.69,-16.49 14.38,-24.8 c 0.45,0.95 0.55,1.96 0.3,3.01 c -2.12,13.62 -4.28,27.22 -6.47,40.82 Z"/></g>
<g><path fill="#ffffff" stroke="#ffffff" stroke-width="0.5" d="M 628.15,128 c 0.76,-24.51 36.44,-70.8 55.3,-86.12 c 1.48,-1.21 8.24,-5.13 7.5,-0.4 c -2.73,11.75 -8.57,24.43 -13.35,35.56 c -7.88,16.56 -22.78,49 -37.24,59.73 c -7.03,4.37 -12.65,-1.57 -12.21,-8.77 Z M 660.1,259.03 c -6.68,49.83 -79.82,26.89 -50.95,-21.84 c 9.22,-15.68 22.35,-28.54 35.93,-40.44 c 1.12,-0.97 1.77,-0.73 1.97,0.71 c 0.74,9.71 2.62,19.19 5.66,28.44 c 4.36,11.55 8.34,20.38 7.39,33.13 Z M 417.86,461.67 c -33.92,5.71 -62.19,-5.81 -61.46,-44.17 c -0.11,-13.35 2.51,-26.13 7.88,-38.34 c 8.2,-16.58 21.2,-27.31 39.01,-32.19 c 27.01,-6.14 57.32,1.82 62.15,32.82 c 4.61,35.1 -9.8,73.69 -47.58,81.88 Z M 914.48,440.2 c 1.19,3.31 5.06,8.48 4.11,11.98 c -4.84,4.4 -17.12,7.5 -23.55,9 c -32.23,5.28 -65.61,0.96 -68.56,-38.16 c -4.21,-56.16 35.82,-90.71 90.7,-73.54 c 1.69,0.54 8.4,2.82 8.32,4.98 c -1.68,4.98 -3.76,9.8 -6.24,14.44 c -1.04,2.52 -2.86,3.43 -5.48,2.74 c -30.6,-8.82 -54.18,-3.03 -58.42,32.18 c -2.86,28.51 5.36,40.36 35.57,35.44 c 5.61,-0.91 14.35,-4.63 19.5,-4.94 c 1.37,0.16 3.34,4.72 4.05,5.88 Z M 252.81,357.08 c 6.27,20.42 12.31,40.9 18.11,61.46 c 0.59,1.53 1.31,1.55 2.14,0.04 c 12.46,-20.88 25.01,-41.7 37.67,-62.46 c 6.93,-12.68 16.39,-8.54 28.62,-8.96 c 6.46,0.92 5.73,6.92 5.25,11.9 c -4.61,30 -9.26,60.01 -13.94,90 c -0.52,3.7 -1.24,7.35 -2.16,10.96 c -0.23,0.45 -0.59,0.71 -1.09,0.79 c -7.3,0.24 -14.59,0.29 -21.89,0.15 c -0.57,0.02 -1.02,-0.19 -1.36,-0.64 c -1.04,-3.49 2.44,-20.5 3.15,-25.18 c 2.19,-13.6 4.35,-27.2 6.47,-40.82 c 0.25,-1.05 0.15,-2.06 -0.3,-3.01 c -4.69,8.31 -9.48,16.58 -14.38,24.8 c -4.9,6.22 -15.09,29.45 -22.17,31.23 c -2.63,0.45 -5.28,0.69 -7.96,0.7 c -4.62,-0.34 -10.87,0.93 -13.09,-4.4 c -5.29,-16.82 -10.48,-33.65 -15.58,-50.48 c -0.43,-0.02 -0.69,0.19 -0.78,0.63 c -3.17,20.87 -6.39,41.74 -9.66,62.6 c -0.34,1.28 -0.49,4.62 -2.4,4.54 c -7.32,0.13 -14.64,0.16 -21.96,0.08 c -0.97,-0.03 -1.52,-0.53 -1.68,-1.48 c 0.26,-3.93 0.74,-7.85 1.42,-11.74 c 4.93,-30.35 9.23,-61.68 14.43,-91.87 c 2.09,-12.65 16.71,-8.25 25.67,-8.74 c 4.78,0.73 5.95,6.11 7.47,9.9 Z M 464.51,448 c 0.36,-4.01 8.01,-5.94 10.76,-8.33 c 21.92,-12.93 24.52,-61.01 31.57,-83.55 c 1.42,-6.27 5.33,-9.29 11.73,-9.07 c 17.63,-0.24 35.27,-0.3 52.91,-0.18 c 8.49,0 22.34,-2.1 19.89,11.11 c -4.99,33.51 -10.17,66.99 -15.55,100.44 c -0.12,0.74 -0.37,1.43 -0.77,2.06 c -4.33,1.57 -18.25,0.55 -23.53,0.44 c -1.2,0.12 -1.93,-0.38 -2.17,-1.52 c 3.1,-29.54 8.64,-59.68 13.42,-89.05 c 0.12,-0.94 -0.27,-1.54 -1.17,-1.79 c -8.58,-0.04 -17.15,-0.04 -25.73,0 c -2.11,-0.07 -4.19,0.08 -6.24,0.47 c -3.31,14.38 -6.69,28.75 -10.13,43.12 c -2.38,10.92 -6.45,21.17 -12.22,30.73 c -6.63,10.57 -21.53,20.2 -33.71,21.78 c -4.01,-0.61 -7.63,-13.17 -9.06,-16.66 Z M 602.81,454 c 4.62,-31.82 9.51,-63.6 14.67,-95.34 c 0.99,-6.12 2.64,-11.85 10.09,-11.63 c 18.05,0.67 46.52,-2.64 63.15,2.74 c 19.24,7.54 20.34,32.09 4.54,43.96 c -2.3,1.51 -4.56,3.07 -6.76,4.67 c 2.52,1.61 4.98,3.36 7.38,5.25 c 13.89,14.16 6.77,38.87 -8.86,48.83 c -20.4,13.92 -54.8,7.2 -78.41,8.37 c -4.09,-0.43 -6.03,-2.72 -5.8,-6.85 Z M 758.95,346.89 c 18.89,-0.12 40.66,-1.58 59.21,0.48 c 0.36,0.32 0.5,0.73 0.43,1.22 c -0.33,4.65 -0.77,16.58 -4.6,19.35 c -15.67,0.13 -31.35,0.3 -47.02,0.51 c -10.72,0.76 -10.36,12.21 -11.83,20.17 c -0.23,0.84 -0.05,1.54 0.55,2.11 c 16.72,-0.01 33.44,0.14 50.16,0.46 c 0.91,0.49 1.33,1.27 1.26,2.33 c -0.23,4.75 -0.87,9.45 -1.94,14.08 c -0.53,2.56 -2.11,3.73 -4.73,3.5 c -14.62,0.07 -29.24,0.12 -43.86,0.17 c -1.53,-0.07 -3.03,0.06 -4.51,0.4 c -0.72,2.02 -1.22,4.11 -1.52,6.25 c -1.17,6.48 -5.49,20.89 5,21.16 c 15.94,0.37 31.88,0.51 47.82,0.44 c 1.41,0.25 4.83,-0.38 4.72,1.92 c -0.24,5 -0.85,13.88 -2.97,18.26 c -1.33,1.13 -2.89,1.59 -4.67,1.39 c -18.5,0.11 -37,0.13 -55.49,0.04 c -13.8,-0.8 -24.69,-8.78 -23.72,-23.64 c 1.87,-19.77 6.12,-41.93 9.13,-61.8 c 2.38,-16.28 11.85,-27.04 28.58,-28.8 Z M 934.34,364.1 c 0.08,-1.04 0.22,-2.07 0.41,-3.1 c 0.61,-3.9 1.35,-7.77 2.24,-11.61 c 0.61,-1.66 1.81,-2.47 3.59,-2.44 c 29.95,-0.23 59.9,-0.18 89.85,0.16 c 3.39,-0.29 1.68,4.04 1.78,5.95 c -0.5,3.6 -1.09,7.19 -1.77,10.76 c -0.29,3.05 -1.96,4.47 -5,4.26 c -9.63,0.09 -19.26,0.13 -28.89,0.11 c -0.54,-0.06 -0.99,0.11 -1.36,0.5 c -4.68,28.42 -9.22,56.87 -13.62,85.34 c -0.32,1.96 -0.75,3.9 -1.28,5.82 c -0.42,0.66 -1.03,0.99 -1.83,1 c -7.32,0.21 -14.63,0.24 -21.95,0.1 c -1.26,0.18 -2.07,-0.31 -2.42,-1.49 c 4.43,-30.26 8.96,-60.49 13.6,-90.71 c -0.3,-0.41 -0.72,-0.59 -1.24,-0.54 c -9.96,0.05 -19.92,-0.05 -29.87,-0.3 c -2.64,0.08 -2.16,-1.94 -2.24,-3.81 Z M 383.98,416 c 0.16,10.58 3.59,22.08 15.63,23.8 c 38.5,8.02 53.23,-62.83 24.64,-71.39 c -29.43,-5.77 -39.49,24.09 -40.27,47.59 Z M 639.29,389.7 c 10.36,-0.57 38.47,4.91 38.12,-12.21 c -0.63,-12.6 -25.01,-8.99 -33.96,-8.76 c -0.58,0.14 -0.96,0.5 -1.13,1.07 c -1.07,6.63 -2.08,13.26 -3.03,19.9 Z M 631.93,438.02 c 0.2,0.76 0.7,1.13 1.5,1.11 c 14.99,0.1 39.23,4.46 42.18,-15.78 c 0.21,-17.99 -26.71,-13.33 -38.89,-13.06 c -0.45,0.23 -0.69,0.61 -0.73,1.13 c -1.49,8.84 -2.84,17.71 -4.06,26.6 Z"/></g>
<g><path fill="#fbbb1a" stroke="#fbbb1a" stroke-width="0.5" d="M 714.06,5.88 c 4.96,-0.51 9.92,-0.51 14.88,0 c 37.18,4.13 66.5,22.77 69.44,62.75 c 0.49,9.7 0.04,19.36 -1.34,28.97 c 0,1.21 0.6,1.94 1.82,2.18 c -1.08,-0.22 -1.93,0.11 -2.53,0.99 c -4.52,30.54 -17.87,64.04 -28.83,93.02 c -8.28,21.52 -15.38,43.21 -19.29,66 c -1.23,7.25 -2.15,14.53 -2.74,21.82 c -0.36,-0.2 -0.63,-0.49 -0.81,-0.86 c -21.85,-67.01 -77.64,-114.72 -149.64,-116.19 c -18.78,-0.3 -37.33,1.58 -55.67,5.64 c -0.59,0.2 -1.05,0.06 -1.36,-0.42 c 5.55,-5.19 11.02,-10.47 16.42,-15.85 c 16.17,-16.51 29.76,-35.02 43.32,-53.66 c 11.75,-17.88 23.76,-35.32 38.39,-51.01 c 20.82,-21.74 47.04,-40.78 77.94,-43.38 Z M 628.15,128 c -0.44,7.2 5.18,13.14 12.21,8.77 c 14.46,-10.73 29.36,-43.17 37.24,-59.73 c 4.78,-11.13 10.62,-23.81 13.35,-35.56 c 0.74,-4.73 -6.02,-0.81 -7.5,0.4 c -18.86,15.32 -54.54,61.61 -55.3,86.12 Z"/></g>
<g><path fill="#3b51a0" stroke="#3b51a0" stroke-width="0.5" d="M 639.29,389.7 c 0.95,-6.64 1.96,-13.27 3.03,-19.9 c 0.17,-0.57 0.55,-0.93 1.13,-1.07 c 8.95,-0.23 33.33,-3.84 33.96,8.76 c 0.35,17.12 -27.76,11.64 -38.12,12.21 Z"/></g>
</svg>
